<svg width="36" height="36" viewBox="0 0 36 36" fill="none" xmlns="http://www.w3.org/2000/svg">
<g id="Layer_1" clip-path="url(#clip0_194_25)">
<path id="Vector" d="M17.9678 0C8.02652 0 -0.0322266 8.05875 -0.0322266 18C-0.0322266 27.9412 8.02652 36 17.9678 36C27.909 36 35.9678 27.9412 35.9678 18C35.9678 8.05875 27.909 0 17.9678 0ZM18.4973 27.42C18.159 27.7845 17.679 27.9668 17.0543 27.9668C16.4303 27.9668 15.951 27.789 15.6173 27.4328C15.2835 27.0765 15.1163 26.5778 15.1163 25.9365C15.1163 24.609 15.762 23.946 17.0543 23.946C17.6873 23.946 18.1703 24.1193 18.5048 24.4665C18.8393 24.8138 19.0058 25.3035 19.0058 25.9365C19.0058 26.5605 18.8355 27.0548 18.4973 27.42ZM23.1983 14.5522C23.0048 15.0667 22.7123 15.5565 22.3208 16.0223C21.9293 16.488 21.2558 17.0947 20.298 17.8417C19.4805 18.483 18.933 19.0147 18.6563 19.437C18.4223 19.7933 18.294 20.259 18.258 20.8223C18.2558 20.8342 18.252 20.838 18.2498 20.85C18.0923 21.7372 17.0618 21.7313 17.0618 21.7313H16.5203C16.5203 21.7313 15.624 21.5903 15.6578 20.8875C15.6578 19.9207 15.8333 19.1167 16.185 18.4748C16.5368 17.8328 17.1525 17.1698 18.0308 16.4842C19.077 15.6578 19.7505 15.0165 20.0535 14.5597C20.3565 14.103 20.5088 13.5577 20.5088 12.9247C20.5088 12.1867 20.2628 11.6198 19.7708 11.2238C19.2788 10.8278 18.5708 10.6305 17.6483 10.6305C16.8128 10.6305 16.0395 10.749 15.3278 10.9867C14.9393 11.1165 14.5575 11.2635 14.1788 11.4218C14.1705 11.4248 14.1675 11.4233 14.1585 11.427C13.284 11.7653 12.8783 11.0775 12.8783 11.0775L12.5348 10.3582C12.5333 10.3538 12.1478 9.4755 13.0073 9.08925C14.5395 8.38875 16.1603 8.03475 17.8718 8.03475C19.5938 8.03475 20.961 8.457 21.9713 9.30075C22.9815 10.1445 23.487 11.3092 23.487 12.7943C23.4878 13.452 23.391 14.0385 23.1983 14.5522Z" fill="#231F20"/>
</g>
<defs>
<clipPath id="clip0_194_25">
<rect width="36" height="36" fill="white"/>
</clipPath>
</defs>
</svg>
