<svg width="41" height="41" viewBox="0 0 41 41" fill="none" xmlns="http://www.w3.org/2000/svg">
<g id="Frame" clip-path="url(#clip0_194_27)">
<path id="Vector" d="M20.4915 3.41663C11.053 3.41663 3.41675 11.0614 3.41675 20.5C3.41675 29.9385 11.053 37.5833 20.4915 37.5833C29.9301 37.5833 37.5834 29.9385 37.5834 20.5C37.5834 11.0614 29.9301 3.41663 20.4915 3.41663ZM32.3217 13.6666H27.2822C26.727 11.5312 25.9497 9.48121 24.9247 7.58496C28.068 8.66121 30.6817 10.8393 32.3217 13.6666ZM20.5001 6.89308C21.9265 8.94308 23.037 11.2237 23.763 13.6666H17.2372C17.9632 11.2237 19.0736 8.94308 20.5001 6.89308ZM7.27758 23.9166C6.99571 22.8233 6.83341 21.6787 6.83341 20.5C6.83341 19.3212 6.99571 18.1766 7.27758 17.0833H13.0432C12.9065 18.2023 12.8126 19.3383 12.8126 20.5C12.8126 21.6616 12.9065 22.7977 13.0517 23.9166H7.27758ZM8.66987 27.3333H13.7095C14.2647 29.4687 15.042 31.5187 16.067 33.4235C12.9236 32.3473 10.3099 30.1606 8.66987 27.3333ZM13.7095 13.6666H8.66987C10.3099 10.8393 12.9236 8.65267 16.067 7.57642C15.042 9.48121 14.2647 11.5312 13.7095 13.6666ZM20.5001 34.1068C19.0822 32.0568 17.9717 29.7762 17.2372 27.3333H23.763C23.0284 29.7762 21.918 32.0568 20.5001 34.1068ZM24.4976 23.9166H16.5026C16.3403 22.7977 16.2292 21.6616 16.2292 20.5C16.2292 19.3383 16.3403 18.2023 16.5026 17.0833H24.4976C24.6599 18.2023 24.7709 19.3383 24.7709 20.5C24.7709 21.6616 24.6599 22.7977 24.4976 23.9166ZM24.9332 33.415C25.9582 31.5102 26.7355 29.4687 27.2907 27.3333H32.3303C30.6817 30.1606 28.068 32.3387 24.9332 33.415ZM27.9484 23.9166C28.0851 22.7977 28.1876 21.6616 28.1876 20.5C28.1876 19.3383 28.0936 18.2023 27.9484 17.0833H33.714C33.9959 18.1766 34.1667 19.3212 34.1667 20.5C34.1667 21.6787 34.0045 22.8233 33.714 23.9166H27.9484Z" fill="black"/>
</g>
<defs>
<clipPath id="clip0_194_27">
<rect width="41" height="41" fill="white"/>
</clipPath>
</defs>
</svg>
